<mxfile host="Electron" agent="Mozilla/5.0 (Windows NT 10.0; Win64; x64) AppleWebKit/537.36 (KHTML, like Gecko) draw.io/28.1.2 Chrome/138.0.7204.243 Electron/37.4.0 Safari/537.36" version="28.1.2">
  <diagram name="PÃ¡gina-1" id="qABVf3UH_eRvuTBSIy5B">
    <mxGraphModel dx="1148" dy="592" grid="1" gridSize="10" guides="1" tooltips="1" connect="1" arrows="1" fold="1" page="1" pageScale="1" pageWidth="827" pageHeight="1169" math="0" shadow="0">
      <root>
        <mxCell id="0" />
        <mxCell id="1" parent="0" />
        <mxCell id="ZSNR3qAT7F5_NHP8rWpd-1" value="" style="rounded=0;whiteSpace=wrap;html=1;movable=0;resizable=0;rotatable=0;deletable=0;editable=0;locked=1;connectable=0;" vertex="1" parent="1">
          <mxGeometry x="214" y="335" width="400" height="500" as="geometry" />
        </mxCell>
        <mxCell id="ZSNR3qAT7F5_NHP8rWpd-37" style="edgeStyle=orthogonalEdgeStyle;rounded=0;orthogonalLoop=1;jettySize=auto;html=1;exitX=0.5;exitY=0;exitDx=0;exitDy=0;exitPerimeter=0;entryX=0;entryY=0.5;entryDx=0;entryDy=0;" edge="1" parent="1" source="ZSNR3qAT7F5_NHP8rWpd-2" target="ZSNR3qAT7F5_NHP8rWpd-9">
          <mxGeometry relative="1" as="geometry" />
        </mxCell>
        <mxCell id="ZSNR3qAT7F5_NHP8rWpd-38" style="edgeStyle=orthogonalEdgeStyle;rounded=0;orthogonalLoop=1;jettySize=auto;html=1;exitX=0.5;exitY=0;exitDx=0;exitDy=0;exitPerimeter=0;entryX=0;entryY=0.5;entryDx=0;entryDy=0;" edge="1" parent="1" source="ZSNR3qAT7F5_NHP8rWpd-2" target="ZSNR3qAT7F5_NHP8rWpd-7">
          <mxGeometry relative="1" as="geometry" />
        </mxCell>
        <mxCell id="ZSNR3qAT7F5_NHP8rWpd-39" style="edgeStyle=orthogonalEdgeStyle;rounded=0;orthogonalLoop=1;jettySize=auto;html=1;exitX=0.5;exitY=0;exitDx=0;exitDy=0;exitPerimeter=0;entryX=0;entryY=0.5;entryDx=0;entryDy=0;" edge="1" parent="1" source="ZSNR3qAT7F5_NHP8rWpd-2" target="ZSNR3qAT7F5_NHP8rWpd-8">
          <mxGeometry relative="1" as="geometry" />
        </mxCell>
        <mxCell id="ZSNR3qAT7F5_NHP8rWpd-40" style="edgeStyle=orthogonalEdgeStyle;rounded=0;orthogonalLoop=1;jettySize=auto;html=1;exitX=0.75;exitY=0.1;exitDx=0;exitDy=0;exitPerimeter=0;entryX=0;entryY=0.5;entryDx=0;entryDy=0;" edge="1" parent="1" source="ZSNR3qAT7F5_NHP8rWpd-2" target="ZSNR3qAT7F5_NHP8rWpd-15">
          <mxGeometry relative="1" as="geometry" />
        </mxCell>
        <mxCell id="ZSNR3qAT7F5_NHP8rWpd-41" style="edgeStyle=orthogonalEdgeStyle;rounded=0;orthogonalLoop=1;jettySize=auto;html=1;exitX=0.5;exitY=0.5;exitDx=0;exitDy=0;exitPerimeter=0;entryX=0;entryY=0.5;entryDx=0;entryDy=0;" edge="1" parent="1" source="ZSNR3qAT7F5_NHP8rWpd-2" target="ZSNR3qAT7F5_NHP8rWpd-12">
          <mxGeometry relative="1" as="geometry" />
        </mxCell>
        <mxCell id="ZSNR3qAT7F5_NHP8rWpd-42" style="edgeStyle=orthogonalEdgeStyle;rounded=0;orthogonalLoop=1;jettySize=auto;html=1;exitX=1;exitY=1;exitDx=0;exitDy=0;exitPerimeter=0;entryX=0;entryY=0.5;entryDx=0;entryDy=0;" edge="1" parent="1" source="ZSNR3qAT7F5_NHP8rWpd-2" target="ZSNR3qAT7F5_NHP8rWpd-13">
          <mxGeometry relative="1" as="geometry" />
        </mxCell>
        <mxCell id="ZSNR3qAT7F5_NHP8rWpd-2" value="Cliente" style="shape=umlActor;verticalLabelPosition=bottom;verticalAlign=top;html=1;outlineConnect=0;" vertex="1" parent="1">
          <mxGeometry x="120" y="605" width="30" height="60" as="geometry" />
        </mxCell>
        <mxCell id="ZSNR3qAT7F5_NHP8rWpd-3" value="Veraz" style="shape=umlActor;verticalLabelPosition=bottom;verticalAlign=top;html=1;outlineConnect=0;" vertex="1" parent="1">
          <mxGeometry x="650" y="460" width="30" height="60" as="geometry" />
        </mxCell>
        <mxCell id="ZSNR3qAT7F5_NHP8rWpd-7" value="Iniciar sesion" style="ellipse;whiteSpace=wrap;html=1;" vertex="1" parent="1">
          <mxGeometry x="280" y="420" width="80" height="40" as="geometry" />
        </mxCell>
        <mxCell id="ZSNR3qAT7F5_NHP8rWpd-8" value="Cerra sesion" style="ellipse;whiteSpace=wrap;html=1;" vertex="1" parent="1">
          <mxGeometry x="280" y="470" width="80" height="40" as="geometry" />
        </mxCell>
        <mxCell id="ZSNR3qAT7F5_NHP8rWpd-9" value="Registrarse" style="ellipse;whiteSpace=wrap;html=1;" vertex="1" parent="1">
          <mxGeometry x="280" y="370" width="80" height="40" as="geometry" />
        </mxCell>
        <mxCell id="ZSNR3qAT7F5_NHP8rWpd-11" value="&lt;b&gt;Consultas:&lt;/b&gt;&lt;br&gt;Cuando te dice que se asume que este autenticado, igual tenemos que hacer el registrar, inciar sesion y cerrar sesion?" style="text;html=1;align=left;verticalAlign=middle;whiteSpace=wrap;rounded=0;" vertex="1" parent="1">
          <mxGeometry y="880" width="380" height="60" as="geometry" />
        </mxCell>
        <mxCell id="ZSNR3qAT7F5_NHP8rWpd-12" value="Adelantar cuotas" style="ellipse;whiteSpace=wrap;html=1;" vertex="1" parent="1">
          <mxGeometry x="280" y="690" width="80" height="40" as="geometry" />
        </mxCell>
        <mxCell id="ZSNR3qAT7F5_NHP8rWpd-13" value="Cancelar prestamo" style="ellipse;whiteSpace=wrap;html=1;" vertex="1" parent="1">
          <mxGeometry x="280" y="740" width="80" height="40" as="geometry" />
        </mxCell>
        <mxCell id="ZSNR3qAT7F5_NHP8rWpd-15" value="Solicitar prestamo" style="ellipse;whiteSpace=wrap;html=1;" vertex="1" parent="1">
          <mxGeometry x="290" y="615" width="80" height="40" as="geometry" />
        </mxCell>
        <mxCell id="ZSNR3qAT7F5_NHP8rWpd-48" style="edgeStyle=orthogonalEdgeStyle;rounded=0;orthogonalLoop=1;jettySize=auto;html=1;exitX=0;exitY=0.5;exitDx=0;exitDy=0;entryX=1;entryY=0.5;entryDx=0;entryDy=0;" edge="1" parent="1" source="ZSNR3qAT7F5_NHP8rWpd-23" target="ZSNR3qAT7F5_NHP8rWpd-15">
          <mxGeometry relative="1" as="geometry" />
        </mxCell>
        <mxCell id="ZSNR3qAT7F5_NHP8rWpd-49" value="extends" style="edgeLabel;html=1;align=center;verticalAlign=middle;resizable=0;points=[];" vertex="1" connectable="0" parent="ZSNR3qAT7F5_NHP8rWpd-48">
          <mxGeometry x="-0.3977" relative="1" as="geometry">
            <mxPoint as="offset" />
          </mxGeometry>
        </mxCell>
        <mxCell id="ZSNR3qAT7F5_NHP8rWpd-23" value="Validar identidad" style="ellipse;whiteSpace=wrap;html=1;" vertex="1" parent="1">
          <mxGeometry x="430" y="565" width="80" height="40" as="geometry" />
        </mxCell>
        <mxCell id="ZSNR3qAT7F5_NHP8rWpd-27" value="" style="endArrow=none;html=1;rounded=0;exitX=1;exitY=0.5;exitDx=0;exitDy=0;entryX=0.5;entryY=0.5;entryDx=0;entryDy=0;entryPerimeter=0;" edge="1" parent="1" source="ZSNR3qAT7F5_NHP8rWpd-23" target="ZSNR3qAT7F5_NHP8rWpd-3">
          <mxGeometry width="50" height="50" relative="1" as="geometry">
            <mxPoint x="380" y="750" as="sourcePoint" />
            <mxPoint x="430" y="700" as="targetPoint" />
          </mxGeometry>
        </mxCell>
        <mxCell id="ZSNR3qAT7F5_NHP8rWpd-43" value="Tiempo" style="shape=umlActor;verticalLabelPosition=bottom;verticalAlign=top;html=1;outlineConnect=0;" vertex="1" parent="1">
          <mxGeometry x="650" y="750" width="30" height="60" as="geometry" />
        </mxCell>
        <mxCell id="ZSNR3qAT7F5_NHP8rWpd-44" value="Descontar cuota mensual" style="ellipse;whiteSpace=wrap;html=1;" vertex="1" parent="1">
          <mxGeometry x="490" y="780" width="100" height="50" as="geometry" />
        </mxCell>
        <mxCell id="ZSNR3qAT7F5_NHP8rWpd-47" value="" style="endArrow=none;html=1;rounded=0;exitX=1;exitY=0.5;exitDx=0;exitDy=0;" edge="1" parent="1" source="ZSNR3qAT7F5_NHP8rWpd-44" target="ZSNR3qAT7F5_NHP8rWpd-43">
          <mxGeometry width="50" height="50" relative="1" as="geometry">
            <mxPoint x="620" y="895" as="sourcePoint" />
            <mxPoint x="775" y="800" as="targetPoint" />
          </mxGeometry>
        </mxCell>
      </root>
    </mxGraphModel>
  </diagram>
</mxfile>
